<svg width="51" height="30" viewBox="0 0 51 30" fill="none" xmlns="http://www.w3.org/2000/svg">
<path d="M48.7154 6.42197L38.1268 0.32219C37.381 -0.107397 36.1608 -0.107397 35.415 0.32219L6.20368 17.15L22.3685 4.76537L14.6556 0.322191C13.9099 -0.107397 12.6896 -0.107397 11.9439 0.322191L1.35533 6.42197C0.609607 6.85156 -0.000530177 7.90718 3.45712e-07 8.76687V20.9612C-0.000530137 21.8228 0.609607 22.8784 1.35533 23.308L11.9439 29.4077C12.6896 29.8373 13.9099 29.8373 14.6556 29.4077L43.867 12.5799L27.7021 24.9646L35.415 29.4077C36.1608 29.8373 37.381 29.8373 38.1268 29.4077L48.7154 23.308C49.4611 22.8784 50.0712 21.8228 50.0712 20.9621V8.76779C50.0712 7.90718 49.4611 6.85156 48.7154 6.42197Z" fill="white"/>
</svg>
